<svg id="visual" viewBox="0 0 900 600" width="900" height="600" xmlns="http://www.w3.org/2000/svg" xmlns:xlink="http://www.w3.org/1999/xlink" version="1.1"><g stroke-width="1" stroke-linejoin="bevel"><path d="M395 290L296 305L321 372Z" fill="#40424b" stroke="#40424b"></path><path d="M296 305L223 320L321 372Z" fill="#62646c" stroke="#62646c"></path><path d="M324 460L422 427L321 372Z" fill="#d5d6d8" stroke="#d5d6d8"></path><path d="M321 372L422 427L395 290Z" fill="#74767d" stroke="#74767d"></path><path d="M203 466L324 460L321 372Z" fill="#87888e" stroke="#87888e"></path><path d="M401 482L475 415L422 427Z" fill="#9a9ba0" stroke="#9a9ba0"></path><path d="M422 427L475 415L395 290Z" fill="#87888e" stroke="#87888e"></path><path d="M395 290L269 187L296 305Z" fill="#51535b" stroke="#51535b"></path><path d="M296 305L269 187L223 320Z" fill="#eaeaeb" stroke="#eaeaeb"></path><path d="M514 209L381 162L395 290Z" fill="#d5d6d8" stroke="#d5d6d8"></path><path d="M395 290L381 162L269 187Z" fill="#ffffff" stroke="#ffffff"></path><path d="M324 460L401 482L422 427Z" fill="#9a9ba0" stroke="#9a9ba0"></path><path d="M117 302L177 384L223 320Z" fill="#9a9ba0" stroke="#9a9ba0"></path><path d="M223 320L177 384L321 372Z" fill="#87888e" stroke="#87888e"></path><path d="M475 415L525 265L395 290Z" fill="#d5d6d8" stroke="#d5d6d8"></path><path d="M525 265L514 209L395 290Z" fill="#40424b" stroke="#40424b"></path><path d="M177 384L203 466L321 372Z" fill="#eaeaeb" stroke="#eaeaeb"></path><path d="M324 460L304 600L401 482Z" fill="#ffffff" stroke="#ffffff"></path><path d="M269 187L171 216L223 320Z" fill="#62646c" stroke="#62646c"></path><path d="M475 415L560 331L525 265Z" fill="#c1c2c5" stroke="#c1c2c5"></path><path d="M525 265L595 205L514 209Z" fill="#51535b" stroke="#51535b"></path><path d="M381 162L287 109L269 187Z" fill="#adaeb2" stroke="#adaeb2"></path><path d="M230 99L139 187L171 216Z" fill="#eaeaeb" stroke="#eaeaeb"></path><path d="M380 84L287 109L381 162Z" fill="#adaeb2" stroke="#adaeb2"></path><path d="M401 482L529 469L475 415Z" fill="#eaeaeb" stroke="#eaeaeb"></path><path d="M475 415L592 364L560 331Z" fill="#ffffff" stroke="#ffffff"></path><path d="M171 216L117 302L223 320Z" fill="#c1c2c5" stroke="#c1c2c5"></path><path d="M177 384L127 432L203 466Z" fill="#d5d6d8" stroke="#d5d6d8"></path><path d="M522 64L380 84L381 162Z" fill="#40424b" stroke="#40424b"></path><path d="M529 469L592 364L475 415Z" fill="#62646c" stroke="#62646c"></path><path d="M560 331L595 205L525 265Z" fill="#ffffff" stroke="#ffffff"></path><path d="M117 302L127 432L177 384Z" fill="#40424b" stroke="#40424b"></path><path d="M171 216L139 187L117 302Z" fill="#40424b" stroke="#40424b"></path><path d="M230 99L171 216L269 187Z" fill="#62646c" stroke="#62646c"></path><path d="M303 0L230 99L287 109Z" fill="#9a9ba0" stroke="#9a9ba0"></path><path d="M287 109L230 99L269 187Z" fill="#9a9ba0" stroke="#9a9ba0"></path><path d="M708 307L595 205L560 331Z" fill="#eaeaeb" stroke="#eaeaeb"></path><path d="M514 209L522 64L381 162Z" fill="#74767d" stroke="#74767d"></path><path d="M211 600L304 600L203 466Z" fill="#74767d" stroke="#74767d"></path><path d="M203 466L304 600L324 460Z" fill="#87888e" stroke="#87888e"></path><path d="M401 482L464 600L529 469Z" fill="#87888e" stroke="#87888e"></path><path d="M304 600L417 600L401 482Z" fill="#9a9ba0" stroke="#9a9ba0"></path><path d="M417 600L464 600L401 482Z" fill="#40424b" stroke="#40424b"></path><path d="M529 469L660 420L592 364Z" fill="#eaeaeb" stroke="#eaeaeb"></path><path d="M126 600L211 600L203 466Z" fill="#eaeaeb" stroke="#eaeaeb"></path><path d="M586 101L522 64L514 209Z" fill="#eaeaeb" stroke="#eaeaeb"></path><path d="M380 84L303 0L287 109Z" fill="#eaeaeb" stroke="#eaeaeb"></path><path d="M595 205L586 101L514 209Z" fill="#9a9ba0" stroke="#9a9ba0"></path><path d="M604 539L660 420L529 469Z" fill="#62646c" stroke="#62646c"></path><path d="M592 364L708 307L560 331Z" fill="#d5d6d8" stroke="#d5d6d8"></path><path d="M595 205L730 86L586 101Z" fill="#d5d6d8" stroke="#d5d6d8"></path><path d="M0 380L70 491L127 432Z" fill="#eaeaeb" stroke="#eaeaeb"></path><path d="M127 432L70 491L203 466Z" fill="#40424b" stroke="#40424b"></path><path d="M0 380L127 432L117 302Z" fill="#62646c" stroke="#62646c"></path><path d="M402 0L303 0L380 84Z" fill="#87888e" stroke="#87888e"></path><path d="M230 99L101 99L139 187Z" fill="#51535b" stroke="#51535b"></path><path d="M522 64L402 0L380 84Z" fill="#74767d" stroke="#74767d"></path><path d="M464 600L604 539L529 469Z" fill="#62646c" stroke="#62646c"></path><path d="M175 0L101 99L230 99Z" fill="#c1c2c5" stroke="#c1c2c5"></path><path d="M0 169L0 335L117 302Z" fill="#74767d" stroke="#74767d"></path><path d="M0 169L117 302L139 187Z" fill="#d5d6d8" stroke="#d5d6d8"></path><path d="M0 335L0 380L117 302Z" fill="#9a9ba0" stroke="#9a9ba0"></path><path d="M70 491L126 600L203 466Z" fill="#74767d" stroke="#74767d"></path><path d="M0 600L126 600L70 491Z" fill="#9a9ba0" stroke="#9a9ba0"></path><path d="M660 420L708 307L592 364Z" fill="#74767d" stroke="#74767d"></path><path d="M522 64L511 0L402 0Z" fill="#74767d" stroke="#74767d"></path><path d="M634 0L511 0L522 64Z" fill="#40424b" stroke="#40424b"></path><path d="M303 0L175 0L230 99Z" fill="#9a9ba0" stroke="#9a9ba0"></path><path d="M604 539L666 534L660 420Z" fill="#62646c" stroke="#62646c"></path><path d="M660 420L774 468L708 307Z" fill="#eaeaeb" stroke="#eaeaeb"></path><path d="M464 600L595 600L604 539Z" fill="#62646c" stroke="#62646c"></path><path d="M667 600L666 534L604 539Z" fill="#ffffff" stroke="#ffffff"></path><path d="M0 132L0 169L101 99Z" fill="#87888e" stroke="#87888e"></path><path d="M101 99L0 169L139 187Z" fill="#adaeb2" stroke="#adaeb2"></path><path d="M0 380L0 489L70 491Z" fill="#51535b" stroke="#51535b"></path><path d="M806 322L734 227L708 307Z" fill="#ffffff" stroke="#ffffff"></path><path d="M708 307L734 227L595 205Z" fill="#40424b" stroke="#40424b"></path><path d="M586 101L634 0L522 64Z" fill="#40424b" stroke="#40424b"></path><path d="M0 0L0 132L101 99Z" fill="#74767d" stroke="#74767d"></path><path d="M175 0L93 0L101 99Z" fill="#eaeaeb" stroke="#eaeaeb"></path><path d="M595 600L667 600L604 539Z" fill="#40424b" stroke="#40424b"></path><path d="M666 534L774 468L660 420Z" fill="#ffffff" stroke="#ffffff"></path><path d="M673 0L634 0L586 101Z" fill="#87888e" stroke="#87888e"></path><path d="M0 489L0 600L70 491Z" fill="#87888e" stroke="#87888e"></path><path d="M734 227L730 86L595 205Z" fill="#51535b" stroke="#51535b"></path><path d="M833 600L774 468L666 534Z" fill="#62646c" stroke="#62646c"></path><path d="M734 227L765 121L730 86Z" fill="#9a9ba0" stroke="#9a9ba0"></path><path d="M824 424L806 322L708 307Z" fill="#62646c" stroke="#62646c"></path><path d="M730 86L673 0L586 101Z" fill="#62646c" stroke="#62646c"></path><path d="M806 322L780 167L734 227Z" fill="#40424b" stroke="#40424b"></path><path d="M780 167L765 121L734 227Z" fill="#9a9ba0" stroke="#9a9ba0"></path><path d="M730 86L815 0L673 0Z" fill="#40424b" stroke="#40424b"></path><path d="M93 0L0 0L101 99Z" fill="#87888e" stroke="#87888e"></path><path d="M774 468L824 424L708 307Z" fill="#40424b" stroke="#40424b"></path><path d="M806 322L900 226L780 167Z" fill="#87888e" stroke="#87888e"></path><path d="M900 433L824 424L900 489Z" fill="#eaeaeb" stroke="#eaeaeb"></path><path d="M900 433L900 290L806 322Z" fill="#d5d6d8" stroke="#d5d6d8"></path><path d="M780 167L900 113L765 121Z" fill="#ffffff" stroke="#ffffff"></path><path d="M765 121L815 0L730 86Z" fill="#eaeaeb" stroke="#eaeaeb"></path><path d="M667 600L833 600L666 534Z" fill="#51535b" stroke="#51535b"></path><path d="M824 424L900 433L806 322Z" fill="#40424b" stroke="#40424b"></path><path d="M900 290L900 226L806 322Z" fill="#51535b" stroke="#51535b"></path><path d="M900 489L824 424L774 468Z" fill="#eaeaeb" stroke="#eaeaeb"></path><path d="M900 113L815 0L765 121Z" fill="#87888e" stroke="#87888e"></path><path d="M833 600L900 489L774 468Z" fill="#ffffff" stroke="#ffffff"></path><path d="M900 226L900 113L780 167Z" fill="#74767d" stroke="#74767d"></path><path d="M833 600L900 600L900 489Z" fill="#d5d6d8" stroke="#d5d6d8"></path><path d="M900 113L900 0L815 0Z" fill="#74767d" stroke="#74767d"></path></g></svg>